<!DOCTYPE svg PUBLIC "-//W3C//DTD SVG 20010904//EN" "http://www.w3.org/TR/2001/REC-SVG-20010904/DTD/svg10.dtd">
<svg version="1.0" xmlns="http://www.w3.org/2000/svg" width="32px" height="32px" viewBox="0 0 320 320" preserveAspectRatio="xMidYMid meet">
<g id="layer101" fill="#2894ee" stroke="none">
 <path d="M119 257 c-67 -40 -69 -44 -69 -117 l0 -68 54 -28 55 -28 43 23 c74 41 78 47 78 117 l0 63 -54 30 c-29 17 -57 31 -62 30 -5 0 -25 -11 -45 -22z"/>
 </g>
<g id="layer102" fill="#87c6fb" stroke="none">
 <path d="M103 239 l-53 -31 0 -67 0 -68 55 -28 55 -29 42 24 c67 36 68 37 68 105 l0 64 -54 30 c-29 17 -55 31 -57 31 -2 0 -28 -14 -56 -31z m104 -14 c42 -25 43 -27 43 -79 0 -53 -1 -54 -45 -80 l-45 -27 -45 27 c-44 26 -45 27 -45 79 0 52 1 54 43 79 23 14 44 25 46 26 2 0 24 -11 48 -25z"/>
 </g>
<g id="layer103" fill="#d7edff" stroke="none">
 <path d="M103 238 l-53 -29 0 -63 0 -62 57 -33 57 -32 41 22 c64 35 65 37 65 103 l0 61 -54 33 c-30 17 -56 31 -58 31 -1 -1 -27 -15 -55 -31z m111 -14 l47 -26 -3 -56 c-3 -55 -4 -56 -51 -84 l-47 -28 -50 31 c-50 31 -50 31 -50 84 0 52 1 54 43 78 54 32 56 32 111 1z"/>
 </g>

</svg>